<svg xmlns="http://www.w3.org/2000/svg" viewBox="0 0 1024 250"><defs><style>.cls-1,.cls-3{font-size:111.43px;}.cls-1,.cls-5{font-family:AvenirNext-Regular, Avenir Next;}.cls-2{fill:#fff;}.cls-3{font-family:AvenirNext-Bold, Avenir Next;font-weight:700;}.cls-4{letter-spacing:-0.01em;}.cls-5{font-weight:400;}.cls-6{fill:#006837;stroke:#006837;}.cls-6,.cls-7,.cls-8,.cls-9{stroke-miterlimit:10;}.cls-7,.cls-9{fill:none;}.cls-7,.cls-8{stroke:#000;}.cls-7{stroke-width:3px;}.cls-9{stroke:#fff;stroke-width:6px;}</style></defs><g id="PROFILER"><text class="cls-1" transform="translate(432.55 158.67)"><tspan xml:space="preserve"> PROFILER</tspan></text><rect class="cls-2" x="824.9" y="146.6" width="16.72" height="16.72"/><text class="cls-1" transform="translate(812.09 213.79)">E</text><rect class="cls-2" x="853.43" y="129.33" width="21.17" height="21.17"/><rect class="cls-2" x="808.73" y="175.82" width="64.63" height="41.79"/></g><g id="COVID"><text class="cls-3" transform="translate(66.21 158.67)"><tspan class="cls-4">CO</tspan><tspan x="169.71" y="0">VID</tspan><tspan class="cls-5" x="367.4" y="0"> </tspan></text><g id="Layer_17_copy_3" data-name="Layer 17 copy 3"><circle class="cls-6" cx="188.02" cy="72.78" r="3.06"/><circle class="cls-6" cx="186.98" cy="166.06" r="3.06"/><circle class="cls-6" cx="206.84" cy="162.44" r="3.06"/><circle class="cls-6" cx="222.88" cy="151.34" r="3.06"/><circle class="cls-6" cx="231.16" cy="138.68" r="3.06"/><circle class="cls-6" cx="235.7" cy="119.58" r="3.06"/><circle class="cls-6" cx="231.32" cy="100.16" r="3.06"/><circle class="cls-6" cx="222.88" cy="86.63" r="3.06"/><circle class="cls-6" cx="207.28" cy="76.12" r="3.06"/><circle class="cls-6" cx="167.72" cy="76.28" r="3.06"/><circle class="cls-6" cx="152.12" cy="86.79" r="3.06"/><circle class="cls-6" cx="142.81" cy="100.32" r="3.06"/><circle class="cls-6" cx="139.31" cy="118.39" r="3.06"/><circle class="cls-6" cx="167.88" cy="162.56" r="3.06"/><circle class="cls-6" cx="153.16" cy="151.18" r="3.06"/><circle class="cls-6" cx="143.84" cy="138.68" r="3.06"/><circle class="cls-2" cx="186.94" cy="119.3" r="50.7"/></g><g id="Layer_9_copy_13" data-name="Layer 9 copy 13"><ellipse cx="187.18" cy="119.42" rx="37.48" ry="36.24"/></g><g id="Layer_9_copy_13-2" data-name="Layer 9 copy 13"><line class="cls-7" x1="168.28" y1="161.23" x2="206.59" y2="77.35"/></g><g id="Layer_9_copy_10" data-name="Layer 9 copy 10"><line class="cls-7" x1="168.28" y1="77.35" x2="206.59" y2="161.23"/></g><g id="Layer_9_copy_10-2" data-name="Layer 9 copy 10"><line class="cls-7" x1="153.26" y1="87.71" x2="221.61" y2="150.88"/></g><g id="Layer_9_copy_10-3" data-name="Layer 9 copy 10"><line class="cls-7" x1="153.26" y1="150.88" x2="221.61" y2="87.71"/></g><g id="Layer_9_copy_10-4" data-name="Layer 9 copy 10"><line class="cls-7" x1="230.27" y1="99.89" x2="144.6" y2="138.7"/></g><g id="Layer_9_copy_10-5" data-name="Layer 9 copy 10"><line class="cls-7" x1="230.27" y1="137.96" x2="144.6" y2="100.62"/></g><g id="Layer_9_copy_10-6" data-name="Layer 9 copy 10"><line class="cls-7" x1="187.44" y1="165.37" x2="187.44" y2="73.21"/></g><g id="Layer_9_copy_10-7" data-name="Layer 9 copy 10"><line class="cls-7" x1="235.07" y1="119.71" x2="139.8" y2="118.87"/></g><g id="Layer_17_copy_7" data-name="Layer 17 copy 7"><circle class="cls-8" cx="188.02" cy="72.78" r="3.06"/><circle class="cls-8" cx="186.98" cy="166.06" r="3.06"/><circle class="cls-8" cx="206.84" cy="162.44" r="3.06"/><circle class="cls-8" cx="222.88" cy="151.34" r="3.06"/><circle class="cls-8" cx="231.16" cy="138.68" r="3.06"/><circle class="cls-8" cx="235.7" cy="119.58" r="3.06"/><circle class="cls-8" cx="231.32" cy="100.16" r="3.06"/><circle class="cls-8" cx="222.88" cy="86.63" r="3.06"/><circle class="cls-8" cx="207.28" cy="76.12" r="3.06"/><circle class="cls-8" cx="167.72" cy="76.28" r="3.06"/><circle class="cls-8" cx="152.12" cy="86.79" r="3.06"/><circle class="cls-8" cx="142.81" cy="100.32" r="3.06"/><circle class="cls-8" cx="139.31" cy="118.39" r="3.06"/><circle class="cls-8" cx="167.88" cy="162.56" r="3.06"/><circle class="cls-8" cx="153.16" cy="151.18" r="3.06"/><circle class="cls-8" cx="143.84" cy="138.68" r="3.06"/></g><ellipse class="cls-9" cx="187.76" cy="119.68" rx="51" ry="49.97"/></g></svg>